<?xml version="1.0" encoding="UTF-8"?><svg id="Layer_1" xmlns="http://www.w3.org/2000/svg" viewBox="0 0 2828.64 1024.44"><defs><style>.cls-1{fill:#495ad4;}</style></defs><g><path d="m1055.25,0c75.46,0,127.43,55.75,127.43,130.84s-51.97,130.85-127.43,130.85-127.43-55.76-127.43-130.85S979.76,0,1055.25,0Zm0,33.75c-54.24,0-88.37,41.35-88.37,97.09s34.13,97.09,88.37,97.09,88.36-41.72,88.36-97.09-34.88-97.09-88.36-97.09Z"/><path d="m1223.95,326.93V73.96h34.14v26.16c13.27-18.21,35.27-30.72,59.91-30.72,47.79,0,81.54,36.03,81.54,95.96s-33.75,96.34-81.54,96.34c-23.89,0-45.12-11.01-59.91-31.1v96.34h-34.14Zm84.96-227.19c-20.86,0-41.73,12.14-50.82,26.93v77.76c9.09,14.4,29.96,26.92,50.82,26.92,34.13,0,54.98-27.68,54.98-65.99s-20.85-65.62-54.98-65.62Z"/><path d="m1519.34,69.4c55.01,0,89.14,42.86,89.14,99v8.34h-144.89c2.66,31.1,25.41,56.9,62.21,56.9,19.33,0,40.58-7.58,54.23-21.62l15.92,22.37c-18.2,17.83-43.99,27.31-73.57,27.31-54.61,0-94.82-38.69-94.82-96.34,0-53.09,38.31-95.96,91.78-95.96Zm-56.13,82.68h111.89c-.75-24.27-17.07-54.61-55.76-54.61s-54.23,29.59-56.13,54.61Z"/><path d="m1771.14,139.95c0-30.34-15.55-40.21-39.07-40.21-21.25,0-40.58,12.9-50.44,26.56v130.84h-34.14V73.96h34.14v25.78c12.13-14.79,36.4-30.34,64.84-30.34,38.69,0,58.79,20.48,58.79,59.17v128.57h-34.12v-117.19Z"/><path d="m1156.12,435.31l-81.92,201.01h-15.92l-81.91-201.01v201.01h-37.94v-252.97h54.23l73.59,181.67,73.59-181.67h54.23v252.97h-37.94v-201.01Z"/><path d="m1325.97,448.58c54.98,0,89.13,42.86,89.13,99v8.34h-144.87c2.66,31.1,25.41,56.9,62.18,56.9,19.36,0,40.59-7.58,54.24-21.62l15.94,22.37c-18.21,17.83-44,27.31-73.57,27.31-54.62,0-94.82-38.69-94.82-96.34,0-53.09,38.31-95.96,91.78-95.96Zm-56.13,82.68h111.88c-.77-24.27-17.06-54.61-55.75-54.61s-54.24,29.59-56.13,54.61Z"/><path d="m1460.93,595.74v-112.65h-30.34v-29.96h30.34v-50.07h34.13v50.07h37.17v29.96h-37.17v105.06c0,12.9,6.07,22.37,17.83,22.37,7.97,0,15.17-3.41,18.58-7.2l8.73,25.79c-7.2,6.83-17.83,11.76-35.65,11.76-28.83,0-43.62-16.32-43.62-45.14Z"/><path d="m1696.81,610.15c-13.65,18.2-35.65,30.72-59.92,30.72-47.78,0-81.92-36.03-81.92-95.96s34.14-96.34,81.92-96.34c23.52,0,45.51,11.38,59.92,31.1v-26.55h34.13v183.18h-34.13v-26.16Zm0-103.92c-9.49-14.79-29.97-26.93-50.82-26.93-34.13,0-55.38,27.31-55.38,65.62s21.25,65.61,55.38,65.61c20.85,0,41.33-11.75,50.82-26.55v-77.75Z"/><path d="m1782.48,383.34h118.7c45.15,0,71.31,27.7,71.31,64.48,0,31.86-20.86,53.09-44,58.02,26.93,4.18,48.93,31.49,48.93,62.21,0,39.83-26.55,68.26-73.2,68.26h-121.74v-252.97Zm111.5,107.33c25.41,0,39.46-15.92,39.46-36.79s-14.05-37.17-39.46-37.17h-73.57v73.96h73.57Zm1.9,112.26c26.55,0,42.48-15.17,42.48-39.81,0-20.86-14.42-39.07-42.48-39.07h-75.48v78.89h75.48Z"/><path d="m2019.82,453.14h34.14v28.07c14.03-18.21,35.65-32.24,59.92-32.24v34.51c-3.41-.77-7.21-1.14-11.76-1.14-17.06,0-40.2,12.9-48.16,26.55v127.43h-34.14v-183.18Z"/><path d="m2138.9,400.8c0-12.14,10.24-22,21.99-22s22,9.86,22,22-9.87,21.62-22,21.62-21.99-9.49-21.99-21.62Zm5.3,52.34h34.13v183.18h-34.13v-183.18Z"/><path d="m2359.23,610.15c-13.65,18.2-35.65,30.72-59.92,30.72-47.78,0-81.92-36.03-81.92-95.96s34.14-96.34,81.92-96.34c23.52,0,45.12,11.38,59.92,31.1v-96.34h34.13v252.97h-34.13v-26.16Zm0-104.31c-9.49-14.79-29.97-26.93-50.82-26.93-34.13,0-55.38,27.7-55.38,66s21.25,65.61,55.38,65.61c20.85,0,41.33-11.75,50.82-26.55v-78.13Z"/><path d="m2458.91,658.32c15.17,17.44,33.76,24.27,58.79,24.27,28.45,0,56.9-13.65,56.9-52.34v-23.89c-14.05,18.2-35.65,31.47-60.32,31.47-47.4,0-81.54-34.9-81.54-94.82s34.14-94.44,81.54-94.44c23.9,0,45.52,11.38,60.32,31.1v-26.55h34.13v175.98c0,62.96-45.9,81.54-91.03,81.54-30.72,0-53.09-6.45-75.09-27.31l16.31-25.03Zm115.68-152.47c-9.49-14.79-30.34-26.93-50.82-26.93-34.14,0-55.39,26.56-55.39,64.1s21.25,64.48,55.39,64.48c20.48,0,41.33-12.51,50.82-27.31v-74.34Z"/><path d="m2739.52,448.58c54.99,0,89.13,42.86,89.13,99v8.34h-144.87c2.66,31.1,25.41,56.9,62.2,56.9,19.34,0,40.59-7.58,54.23-21.62l15.94,22.37c-18.21,17.83-44,27.31-73.57,27.31-54.62,0-94.82-38.69-94.82-96.34,0-53.09,38.31-95.96,91.78-95.96Zm-56.13,82.68h111.88c-.75-24.27-17.06-54.61-55.75-54.61s-54.24,29.59-56.13,54.61Z"/><path d="m938.43,762.52h169.91v33.38h-131.98v73.96h129.32v33.38h-129.32v112.26h-37.94v-252.97Z"/><path d="m1133.31,923.71c0-52.72,35.65-95.96,92.55-95.96s92.55,43.23,92.55,95.96-35.27,96.34-92.55,96.34-92.55-43.23-92.55-96.34Zm149.45,0c0-34.51-20.1-65.62-56.9-65.62s-56.9,31.1-56.9,65.62,20.48,65.99,56.9,65.99,56.9-31.09,56.9-65.99Z"/><path d="m1481.44,990.47c-14.03,15.17-37.17,29.59-65.24,29.59-39.06,0-58.42-19.73-58.42-58.42v-129.32h34.14v117.94c0,30.35,15.17,39.44,38.69,39.44,21.23,0,40.58-12.13,50.82-25.78v-131.61h34.13v183.18h-34.13v-25.03Z"/><path d="m1689.6,898.3c0-30.34-15.55-40.21-39.06-40.21-21.23,0-40.59,12.9-50.45,26.56v130.84h-34.13v-183.18h34.13v25.78c12.14-14.79,36.42-30.34,64.87-30.34,38.69,0,58.79,20.48,58.79,59.17v128.57h-34.14v-117.19Z"/><path d="m1904.6,989.33c-13.66,18.2-35.65,30.72-59.92,30.72-47.79,0-81.92-36.03-81.92-95.96s34.13-96.34,81.92-96.34c23.51,0,45.14,11.38,59.92,31.1v-96.34h34.14v252.97h-34.14v-26.16Zm0-104.31c-9.47-14.79-29.96-26.93-50.82-26.93-34.14,0-55.38,27.7-55.38,66s21.23,65.61,55.38,65.61c20.86,0,41.35-11.75,50.82-26.55v-78.13Z"/><path d="m2119.97,989.33c-13.65,18.2-35.65,30.72-59.92,30.72-47.78,0-81.92-36.03-81.92-95.96s34.14-96.34,81.92-96.34c23.52,0,45.51,11.38,59.92,31.1v-26.55h34.13v183.18h-34.13v-26.16Zm0-103.92c-9.49-14.79-29.97-26.93-50.82-26.93-34.13,0-55.38,27.31-55.38,65.62s21.25,65.61,55.38,65.61c20.85,0,41.33-11.75,50.82-26.55v-77.75Z"/><path d="m2211.7,974.92v-112.65h-30.35v-29.96h30.35v-50.07h34.13v50.07h37.17v29.96h-37.17v105.06c0,12.9,6.08,22.37,17.83,22.37,7.97,0,15.17-3.41,18.59-7.2l8.71,25.79c-7.2,6.83-17.83,11.76-35.65,11.76-28.82,0-43.61-16.32-43.61-45.14Z"/><path d="m2311.79,779.98c0-12.14,10.24-22,22-22s22,9.86,22,22-9.86,21.62-22,21.62-22-9.49-22-21.62Zm5.31,52.34h34.14v183.18h-34.14v-183.18Z"/><path d="m2390.28,923.71c0-52.72,35.65-95.96,92.53-95.96s92.55,43.23,92.55,95.96-35.27,96.34-92.55,96.34-92.53-43.23-92.53-96.34Zm149.43,0c0-34.51-20.1-65.62-56.9-65.62s-56.88,31.1-56.88,65.62,20.48,65.99,56.88,65.99,56.9-31.09,56.9-65.99Z"/><path d="m2738.39,898.3c0-30.34-15.55-40.21-39.07-40.21-21.23,0-40.58,12.9-50.44,26.56v130.84h-34.14v-183.18h34.14v25.78c12.13-14.79,36.42-30.34,64.85-30.34,38.69,0,58.79,20.48,58.79,59.17v128.57h-34.13v-117.19Z"/></g><rect class="cls-1" y="24.44" width="790.8" height="130.75"/><path d="m395.4,233.65C177.04,233.65,0,410.68,0,629.04s177.04,395.4,395.4,395.4,395.4-177.04,395.4-395.4-177-395.4-395.4-395.4Zm0,660.05c-146.16,0-264.65-118.49-264.65-264.65s118.49-264.65,264.65-264.65,264.65,118.49,264.65,264.65-118.49,264.65-264.65,264.65Z"/></svg>