<?xml version="1.0" encoding="UTF-8"?><svg id="Layer_1" xmlns="http://www.w3.org/2000/svg" viewBox="0 0 32 32"><defs><style>.cls-1{fill:#fff;}</style></defs><polygon points="27.48 25.56 17.91 16 27.48 6.44 29.39 8.35 21.74 16 29.39 23.65 27.48 25.56"/><polygon points="8.35 29.39 6.44 27.48 16 17.91 25.56 27.48 23.65 29.39 16 21.74 8.35 29.39"/><polygon points="4.52 25.56 2.61 23.65 10.26 16 2.61 8.35 4.52 6.44 14.09 16 4.52 25.56"/><polygon class="cls-1" points="16 14.09 6.44 4.52 8.35 2.61 16 10.26 23.65 2.61 25.56 4.52 16 14.09"/><rect class="cls-1" x="14.65" width="2.71" height="12.17"/><rect x="19.83" y="14.65" width="12.17" height="2.71"/><rect y="14.65" width="12.17" height="2.71"/><rect x="14.65" y="19.83" width="2.71" height="12.17"/></svg>