<?xml version="1.0" encoding="UTF-8"?><svg id="Layer_1" xmlns="http://www.w3.org/2000/svg" viewBox="0 0 571.43 1000"><defs><style>.cls-1{fill:#fff;}.cls-2{fill:#efefef;}.cls-3{fill:#495ad4;}</style></defs><rect class="cls-3" x="-51.96" y="333.52" width="285.71" height="47.24" transform="translate(448.04 266.25) rotate(90)"/><path class="cls-3" d="m190.1,500c0-52.81,42.81-95.62,95.62-95.62v-47.24c-78.91,0-142.86,63.96-142.86,142.86h47.24Z"/><path class="cls-3" d="m285.71,118.67c52.81,0,95.62,42.81,95.62,95.62h47.24c0-78.91-63.96-142.86-142.86-142.86v47.24Z"/><rect class="cls-3" x="337.68" y="619.24" width="285.71" height="47.24" transform="translate(1123.39 162.32) rotate(90)"/><path class="cls-3" d="m428.57,785.71c0-78.89-63.95-142.86-142.86-142.86v47.24c52.81,0,95.62,42.81,95.62,95.62h47.24Z"/><path class="cls-3" d="m142.86,785.71c0,78.89,63.95,142.86,142.86,142.86v-47.24c-52.81,0-95.62-42.81-95.62-95.62h-47.24Z"/><rect class="cls-2" x="285.71" y="214.29" width="285.71" height="285.71" rx="25" ry="25"/><rect class="cls-2" y="500" width="285.71" height="285.71" rx="25" ry="25"/><rect class="cls-2" x="285.71" y="785.71" width="285.71" height="214.29" rx="25" ry="25"/><rect class="cls-2" width="285.71" height="214.29" rx="25" ry="25"/><g><path class="cls-1" d="m309.6,100.48l-2.34-.5-1.06,5.03-2.36-.5,2.85-13.47,5.92,1.25c2.67.56,4.03,2.67,3.51,5.15-.51,2.4-2.36,3.36-4.03,3.28l2.17,5.99-2.73-.58-1.93-5.66Zm2.23-6.17l-3.23-.68-.91,4.28,3.23.68c1.33.28,2.48-.36,2.76-1.66s-.52-2.34-1.85-2.63Z"/><path class="cls-1" d="m320.41,94.21l8.96,2.95-.67,2.02-6.67-2.2-1.12,3.39,6.53,2.15-.67,2.02-6.53-2.15-1.19,3.63,6.67,2.2-.67,2.02-8.96-2.95,4.31-13.08Z"/><path class="cls-1" d="m338.92,101.03c2.44,1.13,3.49,3.03,3.83,4.95l-2.27.18c-.22-1.24-1.06-2.52-2.46-3.17-2.47-1.15-5.19-.11-6.41,2.51-1.22,2.62-.27,5.39,2.2,6.53,1.27.59,2.68.52,3.48.25l.91-1.95-3.73-1.73.9-1.93,5.92,2.75-2.18,4.68c-1.87.79-4.03.88-6.2-.13-3.62-1.68-5.36-5.61-3.54-9.53,1.82-3.91,5.95-5.09,9.56-3.41Z"/><path class="cls-1" d="m346.89,105.42l2.09,1.21-6.88,11.92-2.09-1.21,6.88-11.93Z"/><path class="cls-1" d="m346.96,116.98c.21,1.37.94,2.94,2.52,4.03,1.64,1.12,2.83.76,3.34.01.7-1.02-.3-2.16-1.44-3.46-1.54-1.73-3.35-3.77-1.71-6.17,1.28-1.88,3.93-2.19,6.41-.49,1.77,1.21,2.82,2.75,3.18,4.5l-2.16.7c-.28-1.49-1.21-2.73-2.4-3.55-1.18-.8-2.31-.75-2.89.1-.61.89.35,1.97,1.47,3.23,1.55,1.76,3.38,3.87,1.69,6.34-1.29,1.89-3.73,2.6-6.8.5-2.1-1.43-3.11-3.2-3.38-4.97l2.16-.78Z"/><path class="cls-1" d="m364.05,119.81l-3.18-2.7,1.37-1.62,8.21,6.95-1.37,1.62-3.18-2.7-7.52,8.88-1.84-1.56,7.52-8.88Z"/><path class="cls-1" d="m372.69,124.6l6.54,6.81-1.53,1.47-4.86-5.07-2.58,2.47,4.76,4.96-1.53,1.47-4.76-4.96-2.76,2.65,4.86,5.07-1.53,1.47-6.54-6.81,9.94-9.54Z"/><path class="cls-1" d="m377.67,143.2l-1.46-1.9-4.07,3.14-1.48-1.91,10.91-8.42,3.7,4.79c1.67,2.16,1.34,4.65-.67,6.2-1.95,1.5-3.98,1.03-5.2-.11l-2.23,5.97-1.7-2.21,2.2-5.56Zm5.71-3.25l-2.02-2.62-3.47,2.68,2.02,2.62c.83,1.08,2.13,1.33,3.17.53,1.05-.81,1.13-2.12.3-3.2Z"/><path class="cls-1" d="m393.01,150.28l1.18,2.11-10.17,5.67,2.95,5.3-1.86,1.03-4.13-7.41,12.03-6.7Z"/><path class="cls-1" d="m398.36,160.34l1.02,2.19-12.47,5.84-1.02-2.19,12.47-5.84Z"/><path class="cls-1" d="m398.37,169.54l-9.42,3.44-.83-2.27,12.93-4.72.85,2.33-6.76,9.96,9.17-3.35.83,2.27-12.93,4.72-.8-2.19,6.96-10.19Z"/><path class="cls-1" d="m399.33,186.57l-1.64-.85-4.28.99-.55-2.35,13.42-3.11.55,2.35-6.4,1.48,7.61,3.77.68,2.92-7.6-3.98-5.72,7.49-.67-2.9,4.61-5.81Z"/></g><g><path class="cls-1" d="m330.83,678.48c.43,1.32,1.39,2.76,3.13,3.58,1.79.85,2.92.3,3.3-.52.53-1.12-.64-2.08-1.96-3.19-1.8-1.47-3.9-3.19-2.66-5.82.97-2.05,3.53-2.78,6.26-1.5,1.94.92,3.22,2.27,3.85,3.94l-2.02,1.03c-.51-1.43-1.63-2.5-2.93-3.12-1.29-.61-2.4-.38-2.84.55-.46.97.66,1.89,1.96,2.96,1.81,1.49,3.95,3.28,2.67,5.99-.98,2.07-3.27,3.16-6.63,1.57-2.3-1.08-3.58-2.67-4.12-4.37l2.01-1.11Z"/><path class="cls-1" d="m346.66,675.17l8.06,4.91-1.11,1.82-6-3.65-1.86,3.05,5.87,3.58-1.11,1.82-5.87-3.58-1.99,3.26,6,3.65-1.11,1.82-8.06-4.91,7.17-11.77Z"/><path class="cls-1" d="m357.56,682.07l1.93,1.45-7,9.31,4.85,3.65-1.28,1.7-6.78-5.1,8.28-11.01Z"/><path class="cls-1" d="m366.74,689.21l1.79,1.62-7.83,8.62,4.49,4.08-1.43,1.57-6.28-5.7,9.26-10.19Z"/><path class="cls-1" d="m377.95,705.7l-7.82,6.28-1.51-1.88,10.74-8.63,1.55,1.93-3.2,11.61,7.61-6.12,1.51,1.88-10.74,8.63-1.46-1.82,3.32-11.89Z"/><path class="cls-1" d="m389.15,714.18l5.03,7.98-1.8,1.13-3.74-5.94-3.02,1.9,3.67,5.82-1.8,1.13-3.67-5.82-5.03,3.17-1.29-2.04,11.65-7.34Z"/><path class="cls-1" d="m395.28,728.88l-1.85-3.74,1.91-.94,4.78,9.64-1.91.94-1.85-3.74-10.44,5.17-1.07-2.17,10.44-5.17Z"/></g><g><path class="cls-1" d="m233.91,899.08l-6.05-3.03c-2.25-1.13-2.81-3.16-1.94-4.9.78-1.55,2.29-2.08,3.56-1.75-1.21-.86-1.62-2.71-.86-4.22.95-1.9,2.94-2.69,5.25-1.53l6.22,3.12-6.17,12.31Zm-3.06-7.91c-1.11-.56-2.07-.2-2.53.72-.46.92-.18,1.92.93,2.48l3.45,1.73,1.6-3.19-3.45-1.73Zm2.57-5.36c-1.18-.59-2.21-.3-2.74.77-.46.92-.2,2.02,1.03,2.64l3.54,1.78,1.71-3.42-3.54-1.78Z"/><path class="cls-1" d="m220.91,892.33l-2.03-1.35,4.57-6.87c1.21-1.82.99-3.68-.94-4.96-1.91-1.27-3.71-.76-4.92,1.06l-4.57,6.87-2.03-1.35,4.61-6.93c1.9-2.85,4.79-3.66,8.11-1.45,3.33,2.22,3.7,5.21,1.82,8.03l-4.62,6.94Z"/><path class="cls-1" d="m209.96,874.51l-1.18,9.59-2.1-1.8.96-6.95-6.7,2.04-2.1-1.8,9.28-2.65,3.72-4.34,1.83,1.57-3.72,4.34Z"/><path class="cls-1" d="m194.18,865.2l7.71-6.42,1.55,1.86-10.58,8.81-1.59-1.9,3-11.66-7.5,6.25-1.55-1.86,10.58-8.81,1.49,1.79-3.11,11.94Z"/><path class="cls-1" d="m182.85,856.94l-5.18-7.89,1.78-1.17,3.85,5.87,2.99-1.96-3.77-5.75,1.78-1.17,3.77,5.75,4.97-3.26,1.32,2.02-11.51,7.55Z"/><path class="cls-1" d="m176.46,842.36l1.92,3.7-1.89.98-4.95-9.55,1.89-.98,1.92,3.7,10.34-5.36,1.11,2.15-10.34,5.36Z"/></g><g><path class="cls-1" d="m173.79,461.71c-3.93-1.57-5.44-5.57-3.97-9.26,1.07-2.68,3.05-3.74,4.96-4.08l.21,2.31c-1.3.19-2.59,1.1-3.18,2.57-.97,2.43.21,5.09,2.9,6.16,2.68,1.07,5.37-.03,6.34-2.47.59-1.48.29-3.02-.54-4.06l1.74-1.53c1.14,1.59,1.86,3.7.79,6.38-1.47,3.68-5.32,5.54-9.25,3.97Z"/><path class="cls-1" d="m173.55,444.58l1.13-2.13,10.28,5.46,2.85-5.36,1.88,1-3.98,7.49-12.16-6.46Z"/><path class="cls-1" d="m193.29,433.26l-3.66,5.4,1.62,2.32-1.48,2.19-8.37-12.2,1.69-2.5,14.43,3.24-1.48,2.19-2.76-.64Zm-5.04,3.64l2.89-4.27-7.21-1.77,4.31,6.04Z"/><path class="cls-1" d="m187.73,422.24l1.52-1.88,10.72,8.65-1.52,1.88-10.72-8.65Z"/><path class="cls-1" d="m202.38,411.08l4.47,10.33-.72.74-10.39-4.31,7.44,7.31-1.69,1.72-9.82-9.66,2.39-2.43,9.23,3.83-3.98-9.18,2.39-2.43,9.82,9.65-1.69,1.72-7.44-7.31Z"/><path class="cls-1" d="m213.63,402.23l5.74,8.23-1.98,1.38-7.88-11.29,2.03-1.42,11.36,3.98-5.59-8.01,1.98-1.38,7.88,11.29-1.91,1.33-11.63-4.12Z"/><path class="cls-1" d="m222.87,391.64l8.31-4.47,1.01,1.87-6.18,3.33,1.69,3.15,6.05-3.26,1.01,1.87-6.05,3.26,2.82,5.24-2.13,1.14-6.52-12.12Z"/><path class="cls-1" d="m237.96,386.52l-3.86,1.59-.81-1.97,9.95-4.09.81,1.97-3.86,1.59,4.43,10.77-2.23.92-4.43-10.77Z"/></g><g><path class="cls-1" d="m96.11,284.84v-4.17h2.13v10.76h-2.13v-4.17h-11.65v-2.42h11.65Z"/><path class="cls-1" d="m89.6,298.29v-2.4h-5.14v-2.42h13.77v6.05c0,2.73-1.78,4.5-4.32,4.5s-3.78-1.61-4.05-3.26l-5.41,3.36v-2.79l5.14-3.06Zm6.5.91v-3.3h-4.38v3.3c0,1.36.87,2.35,2.19,2.35s2.19-.99,2.19-2.35Z"/><path class="cls-1" d="m87.1,315.17v-6.52l-2.64-1.01v-2.64l13.77,5.41v3.02l-13.77,5.41v-2.64l2.64-1.01Zm2.13-5.84v5.16l6.96-2.58-6.96-2.58Z"/><path class="cls-1" d="m94.5,322.75h-10.04v-2.42h13.77v2.48l-9.77,7.04h9.77v2.42h-13.77v-2.33l10.04-7.19Z"/><path class="cls-1" d="m88.26,335.65c-1.01.95-1.9,2.44-1.9,4.36s.97,2.77,1.88,2.77c1.24,0,1.61-1.47,2.04-3.14.56-2.25,1.22-4.89,4.13-4.89,2.27,0,4.03,2,4.03,5.02,0,2.15-.68,3.88-1.92,5.16l-1.8-1.38c1.07-1.07,1.57-2.54,1.57-3.99s-.68-2.33-1.71-2.33-1.42,1.4-1.84,3.03c-.58,2.27-1.28,4.98-4.27,4.98-2.29,0-4.25-1.61-4.25-5.33,0-2.54.89-4.38,2.19-5.59l1.86,1.34Z"/><path class="cls-1" d="m98.23,347.46v9.44h-2.13v-7.02h-3.57v6.88h-2.13v-6.88h-5.95v-2.42h13.77Z"/><path class="cls-1" d="m98.23,359.06v9.44h-2.13v-7.02h-3.57v6.88h-2.13v-6.88h-3.82v7.02h-2.13v-9.44h13.77Z"/><path class="cls-1" d="m89.6,375.79v-2.4h-5.14v-2.42h13.77v6.05c0,2.73-1.78,4.5-4.32,4.5s-3.78-1.61-4.05-3.26l-5.41,3.37v-2.79l5.14-3.06Zm6.5.91v-3.3h-4.38v3.3c0,1.36.87,2.35,2.19,2.35s2.19-.99,2.19-2.35Z"/><path class="cls-1" d="m98.23,389.25v2.42h-13.77v-2.42h13.77Z"/><path class="cls-1" d="m96.11,397.88v-4.17h2.13v10.76h-2.13v-4.17h-11.65v-2.42h11.65Z"/><path class="cls-1" d="m98.23,406.51v9.44h-2.13v-7.02h-3.57v6.88h-2.13v-6.88h-3.82v7.02h-2.13v-9.44h13.77Z"/><path class="cls-1" d="m94.89,430.31l-10.43-4.23v-1.03l10.43-4.21h-10.43v-2.42h13.77v3.41l-9.27,3.74,9.27,3.76v3.41h-13.77v-2.42h10.43Z"/></g><g><path class="cls-1" d="m474.53,701.78v-2.75l11.15-4.17-11.15-4.17v-2.75l13.77,5.41v3.02l-13.77,5.41Z"/><path class="cls-1" d="m474.53,686.44v-9.44h2.13v7.02h3.57v-6.88h2.13v6.88h3.82v-7.02h2.13v9.44h-13.77Z"/><path class="cls-1" d="m483.16,669.71v2.4h5.14v2.42h-13.77v-6.05c0-2.73,1.78-4.5,4.32-4.5s3.78,1.61,4.05,3.26l5.41-3.37v2.79l-5.14,3.06Zm-6.5-.91v3.3h4.38v-3.3c0-1.36-.87-2.35-2.19-2.35s-2.19.99-2.19,2.35Z"/><path class="cls-1" d="m474.53,661.56v-2.42h13.77v2.42h-13.77Z"/><path class="cls-1" d="m474.53,656.21v-9.44h2.13v7.02h3.57v-6.88h2.13v6.88h5.95v2.42h-13.77Z"/><path class="cls-1" d="m482.58,640.71l-8.05,5.35v-2.77l5.91-3.8-5.91-3.76v-2.77l8.05,5.33h5.72v2.42h-5.72Z"/><path class="cls-1" d="m474.53,626.15v-2.42h11.65v-6.07h2.13v8.49h-13.77Z"/><path class="cls-1" d="m474.53,615.48v-2.42h13.77v2.42h-13.77Z"/><path class="cls-1" d="m478.26,607.72h10.04v2.42h-13.77v-2.48l9.77-7.04h-9.77v-2.42h13.77v2.33l-10.04,7.19Z"/><path class="cls-1" d="m482.5,591.65l1.4,1.2h4.4v2.42h-13.77v-2.42h6.57l-6.57-5.39v-3l6.51,5.6,7.27-6.01v2.97l-5.8,4.63Z"/></g><g><path d="m81.64,107.14c0-7.79,5.74-13.11,12.92-13.11,4.6,0,7.71,2.17,9.73,5.01l-2.66,1.48c-1.44-2.13-4.07-3.69-7.07-3.69-5.43,0-9.65,4.25-9.65,10.3s4.22,10.3,9.65,10.3c3,0,5.62-1.52,7.07-3.69l2.7,1.48c-2.13,2.89-5.17,5.02-9.76,5.02-7.18,0-12.92-5.32-12.92-13.11Z"/><path d="m108.24,101.44h2.85v2.96c1.48-1.94,3.61-3.34,6.12-3.34v2.93c-.34-.08-.68-.11-1.14-.11-1.75,0-4.14,1.44-4.98,2.93v12.99h-2.85v-18.35Z"/><path d="m128.76,100.99c5.55,0,8.82,4.33,8.82,9.84v.72h-14.86c.23,3.46,2.66,6.35,6.61,6.35,2.09,0,4.22-.84,5.66-2.32l1.37,1.86c-1.82,1.82-4.29,2.81-7.29,2.81-5.43,0-9.35-3.91-9.35-9.65,0-5.32,3.8-9.61,9.04-9.61Zm-6.04,8.47h12.04c-.04-2.74-1.86-6.12-6.04-6.12-3.91,0-5.85,3.3-6,6.12Z"/><path d="m153.65,117.7c-1.52,1.67-3.61,2.55-6.08,2.55-3.12,0-6.42-2.09-6.42-6.08s3.31-6.04,6.42-6.04c2.51,0,4.6.8,6.08,2.51v-3.31c0-2.47-1.98-3.88-4.64-3.88-2.2,0-3.99.8-5.62,2.55l-1.33-1.98c1.98-2.05,4.33-3.04,7.33-3.04,3.88,0,7.11,1.75,7.11,6.19v12.61h-2.85v-2.09Zm0-5.24c-1.1-1.52-3.04-2.28-5.05-2.28-2.66,0-4.52,1.67-4.52,4.03s1.86,3.99,4.52,3.99c2.01,0,3.95-.76,5.05-2.28v-3.46Z"/><path d="m162.77,115.96v-12.01h-3.04v-2.51h3.04v-5.01h2.85v5.01h3.72v2.51h-3.72v11.4c0,1.37.61,2.36,1.86,2.36.8,0,1.56-.34,1.94-.76l.84,2.13c-.72.68-1.75,1.18-3.42,1.18-2.7,0-4.07-1.56-4.07-4.29Z"/><path d="m172.31,110.6c0-5.32,3.5-9.61,9.08-9.61s9.08,4.29,9.08,9.61-3.5,9.65-9.08,9.65-9.08-4.33-9.08-9.65Zm15.16,0c0-3.72-2.17-7.07-6.08-7.07s-6.12,3.34-6.12,7.07,2.2,7.1,6.12,7.1,6.08-3.34,6.08-7.1Z"/><path d="m195.11,101.44h2.85v2.96c1.48-1.94,3.61-3.34,6.12-3.34v2.93c-.34-.08-.68-.11-1.14-.11-1.75,0-4.14,1.44-4.98,2.93v12.99h-2.85v-18.35Z"/></g><g><path d="m100.85,629.75c7.49,0,12.58,5.62,12.58,13.11s-5.09,13.11-12.58,13.11-12.58-5.62-12.58-13.11,5.05-13.11,12.58-13.11Zm0,2.81c-5.7,0-9.31,4.37-9.31,10.3s3.61,10.3,9.31,10.3,9.31-4.41,9.31-10.3-3.65-10.3-9.31-10.3Z"/><path d="m129.35,640.77l-4.79,14.74h-2.85l-5.85-18.35h2.96l4.48,14.63,4.83-14.63h2.43l4.83,14.63,4.48-14.63h2.96l-5.85,18.35h-2.85l-4.79-14.74Z"/><path d="m158.53,643.5c0-3.23-1.63-4.26-4.1-4.26-2.24,0-4.37,1.37-5.43,2.85v13.41h-2.85v-18.35h2.85v2.66c1.29-1.52,3.8-3.12,6.54-3.12,3.84,0,5.85,1.94,5.85,5.93v12.88h-2.85v-12.01Z"/><path d="m175.06,636.7c5.55,0,8.82,4.33,8.82,9.84v.72h-14.86c.23,3.46,2.66,6.35,6.61,6.35,2.09,0,4.22-.84,5.66-2.32l1.37,1.86c-1.82,1.82-4.29,2.81-7.29,2.81-5.43,0-9.35-3.91-9.35-9.65,0-5.32,3.8-9.61,9.04-9.61Zm-6.04,8.47h12.04c-.04-2.74-1.86-6.12-6.04-6.12-3.91,0-5.85,3.3-6,6.12Z"/><path d="m188.48,637.16h2.85v2.96c1.48-1.94,3.61-3.34,6.12-3.34v2.93c-.34-.08-.68-.11-1.14-.11-1.75,0-4.14,1.44-4.98,2.93v12.99h-2.85v-18.35Z"/></g><g><path d="m382.69,341.01c1.67,1.86,4.41,3.61,7.98,3.61,4.52,0,5.96-2.43,5.96-4.37,0-3.04-3.08-3.88-6.42-4.79-4.07-1.06-8.59-2.2-8.59-7.18,0-4.18,3.72-7.03,8.7-7.03,3.88,0,6.88,1.29,9,3.53l-1.9,2.32c-1.9-2.09-4.56-3.04-7.33-3.04-3.04,0-5.21,1.63-5.21,4.03,0,2.54,2.93,3.3,6.16,4.18,4.14,1.1,8.85,2.39,8.85,7.71,0,3.69-2.51,7.45-9.35,7.45-4.41,0-7.64-1.67-9.73-4.03l1.86-2.39Z"/><path d="m426.65,334.51c0-2.32-1.03-3.8-3.38-3.8-1.9,0-3.91,1.37-4.86,2.81v13.45h-2.85v-12.46c0-2.32-.99-3.8-3.38-3.8-1.86,0-3.84,1.37-4.83,2.85v13.41h-2.85v-18.35h2.85v2.66c.76-1.18,3.23-3.12,5.93-3.12s4.41,1.52,4.94,3.42c1.03-1.67,3.5-3.42,6.16-3.42,3.34,0,5.13,1.86,5.13,5.55v13.26h-2.85v-12.46Z"/><path d="m446.68,344.89c-1.52,1.67-3.61,2.55-6.08,2.55-3.12,0-6.42-2.09-6.42-6.08s3.31-6.04,6.42-6.04c2.51,0,4.6.8,6.08,2.51v-3.31c0-2.47-1.98-3.88-4.64-3.88-2.2,0-3.99.8-5.62,2.55l-1.33-1.98c1.98-2.05,4.33-3.04,7.33-3.04,3.88,0,7.11,1.75,7.11,6.19v12.61h-2.85v-2.09Zm0-5.24c-1.1-1.52-3.04-2.28-5.05-2.28-2.66,0-4.52,1.67-4.52,4.03s1.86,3.99,4.52,3.99c2.01,0,3.95-.76,5.05-2.28v-3.46Z"/><path d="m455.23,328.62h2.85v2.96c1.48-1.94,3.61-3.34,6.12-3.34v2.93c-.34-.08-.68-.11-1.14-.11-1.75,0-4.14,1.44-4.98,2.93v12.99h-2.85v-18.35Z"/><path d="m468.34,343.14v-12.01h-3.04v-2.51h3.04v-5.01h2.85v5.01h3.72v2.51h-3.72v11.4c0,1.37.61,2.36,1.86,2.36.8,0,1.56-.34,1.94-.76l.84,2.13c-.72.68-1.75,1.18-3.42,1.18-2.7,0-4.07-1.56-4.07-4.29Z"/><path d="m358.63,379.92c0-7.79,5.74-13.11,12.92-13.11,4.6,0,7.71,2.17,9.73,5.01l-2.66,1.48c-1.44-2.13-4.07-3.69-7.07-3.69-5.43,0-9.65,4.25-9.65,10.3s4.22,10.3,9.65,10.3c3,0,5.62-1.52,7.07-3.69l2.7,1.48c-2.13,2.89-5.17,5.02-9.76,5.02-7.18,0-12.92-5.32-12.92-13.11Z"/><path d="m384.17,383.38c0-5.32,3.5-9.61,9.08-9.61s9.08,4.29,9.08,9.61-3.5,9.65-9.08,9.65-9.08-4.33-9.08-9.65Zm15.16,0c0-3.72-2.17-7.07-6.08-7.07s-6.12,3.34-6.12,7.07,2.2,7.1,6.12,7.1,6.08-3.34,6.08-7.1Z"/><path d="m419.36,380.57c0-3.23-1.63-4.26-4.1-4.26-2.24,0-4.37,1.37-5.43,2.85v13.41h-2.85v-18.35h2.85v2.66c1.29-1.52,3.8-3.12,6.54-3.12,3.84,0,5.85,1.94,5.85,5.93v12.88h-2.85v-12.01Z"/><path d="m428.48,388.74v-12.01h-3.04v-2.51h3.04v-5.01h2.85v5.01h3.72v2.51h-3.72v11.4c0,1.37.61,2.36,1.86,2.36.8,0,1.56-.34,1.94-.76l.84,2.13c-.72.68-1.75,1.18-3.42,1.18-2.7,0-4.07-1.56-4.07-4.29Z"/><path d="m439.08,374.22h2.85v2.96c1.48-1.94,3.61-3.34,6.12-3.34v2.93c-.34-.08-.68-.11-1.14-.11-1.75,0-4.14,1.44-4.98,2.93v12.99h-2.85v-18.35Z"/><path d="m463.09,390.49c-1.52,1.67-3.61,2.55-6.08,2.55-3.12,0-6.42-2.09-6.42-6.08s3.3-6.04,6.42-6.04c2.51,0,4.6.8,6.08,2.51v-3.31c0-2.47-1.98-3.88-4.64-3.88-2.2,0-3.99.8-5.62,2.55l-1.33-1.98c1.98-2.05,4.33-3.04,7.33-3.04,3.88,0,7.11,1.75,7.11,6.19v12.61h-2.85v-2.09Zm0-5.24c-1.1-1.52-3.04-2.28-5.05-2.28-2.66,0-4.52,1.67-4.52,4.03s1.86,3.99,4.52,3.99c2.01,0,3.95-.76,5.05-2.28v-3.46Z"/><path d="m479.74,373.77c3.34,0,5.32,1.37,6.72,3.19l-1.9,1.75c-1.22-1.67-2.77-2.39-4.67-2.39-3.91,0-6.35,3-6.35,7.07s2.43,7.1,6.35,7.1c1.9,0,3.46-.76,4.67-2.39l1.9,1.75c-1.41,1.82-3.38,3.19-6.72,3.19-5.47,0-9.16-4.18-9.16-9.65s3.68-9.61,9.16-9.61Z"/><path d="m491.02,388.74v-12.01h-3.04v-2.51h3.04v-5.01h2.85v5.01h3.72v2.51h-3.72v11.4c0,1.37.61,2.36,1.86,2.36.8,0,1.56-.34,1.94-.76l.84,2.13c-.72.68-1.75,1.18-3.42,1.18-2.7,0-4.07-1.56-4.07-4.29Z"/></g><g><path d="m350.02,880.95l-8.62,21.09h-1.29l-8.59-21.09v21.09h-3.15v-25.34h4.52l7.87,19.3,7.9-19.3h4.52v25.34h-3.15v-21.09Z"/><path d="m370.47,899.94c-1.52,1.67-3.61,2.55-6.08,2.55-3.12,0-6.42-2.09-6.42-6.08s3.3-6.04,6.42-6.04c2.51,0,4.6.8,6.08,2.51v-3.31c0-2.47-1.97-3.88-4.63-3.88-2.2,0-3.99.8-5.62,2.55l-1.33-1.98c1.97-2.05,4.33-3.04,7.33-3.04,3.88,0,7.11,1.75,7.11,6.19v12.61h-2.85v-2.09Zm0-5.24c-1.1-1.52-3.04-2.28-5.05-2.28-2.66,0-4.52,1.67-4.52,4.03s1.86,3.99,4.52,3.99c2.01,0,3.95-.76,5.05-2.28v-3.46Z"/><path d="m379.02,883.68h2.85v2.96c1.48-1.94,3.61-3.34,6.12-3.34v2.93c-.34-.08-.68-.11-1.14-.11-1.75,0-4.14,1.44-4.98,2.93v12.99h-2.85v-18.35Z"/><path d="m397.45,893.79l-3.04,3v5.24h-2.85v-25.34h2.85v16.75l9.65-9.76h3.61l-8.13,8.32,8.17,10.03h-3.65l-6.61-8.25Z"/><path d="m418.2,883.22c5.55,0,8.81,4.33,8.81,9.84v.72h-14.86c.23,3.46,2.66,6.35,6.61,6.35,2.09,0,4.22-.84,5.66-2.32l1.37,1.86c-1.82,1.82-4.29,2.81-7.29,2.81-5.43,0-9.35-3.91-9.35-9.65,0-5.32,3.8-9.61,9.04-9.61Zm-6.04,8.47h12.04c-.04-2.74-1.86-6.12-6.04-6.12-3.91,0-5.85,3.3-6,6.12Z"/><path d="m432.18,898.19v-12.01h-3.04v-2.51h3.04v-5.01h2.85v5.01h3.72v2.51h-3.72v11.4c0,1.37.61,2.36,1.86,2.36.8,0,1.56-.34,1.94-.76l.84,2.13c-.72.68-1.75,1.18-3.42,1.18-2.7,0-4.07-1.56-4.07-4.29Z"/><path d="m442.78,909.02v-25.34h2.85v2.74c1.33-1.86,3.61-3.19,6.19-3.19,4.83,0,8.17,3.65,8.17,9.61s-3.34,9.65-8.17,9.65c-2.51,0-4.71-1.18-6.19-3.23v9.76h-2.85Zm8.32-23.25c-2.24,0-4.48,1.33-5.47,2.93v8.28c.99,1.6,3.23,2.96,5.47,2.96,3.69,0,5.89-3.04,5.89-7.1s-2.21-7.07-5.89-7.07Z"/><path d="m464.6,876.69h2.85v25.34h-2.85v-25.34Z"/><path d="m484.62,899.94c-1.52,1.67-3.61,2.55-6.08,2.55-3.12,0-6.42-2.09-6.42-6.08s3.3-6.04,6.42-6.04c2.51,0,4.6.8,6.08,2.51v-3.31c0-2.47-1.97-3.88-4.63-3.88-2.2,0-3.99.8-5.62,2.55l-1.33-1.98c1.97-2.05,4.33-3.04,7.33-3.04,3.88,0,7.11,1.75,7.11,6.19v12.61h-2.85v-2.09Zm0-5.24c-1.1-1.52-3.04-2.28-5.05-2.28-2.66,0-4.52,1.67-4.52,4.03s1.86,3.99,4.52,3.99c2.01,0,3.95-.76,5.05-2.28v-3.46Z"/><path d="m501.26,883.22c3.34,0,5.32,1.37,6.72,3.19l-1.9,1.75c-1.21-1.67-2.77-2.39-4.67-2.39-3.91,0-6.35,3-6.35,7.07s2.43,7.1,6.35,7.1c1.9,0,3.46-.76,4.67-2.39l1.9,1.75c-1.41,1.82-3.38,3.19-6.72,3.19-5.47,0-9.16-4.18-9.16-9.65s3.68-9.61,9.16-9.61Z"/><path d="m519.96,883.22c5.55,0,8.81,4.33,8.81,9.84v.72h-14.86c.23,3.46,2.66,6.35,6.61,6.35,2.09,0,4.22-.84,5.66-2.32l1.37,1.86c-1.82,1.82-4.29,2.81-7.29,2.81-5.43,0-9.35-3.91-9.35-9.65,0-5.32,3.8-9.61,9.04-9.61Zm-6.04,8.47h12.04c-.04-2.74-1.86-6.12-6.04-6.12-3.91,0-5.85,3.3-6,6.12Z"/></g></svg>