<?xml version="1.0" encoding="UTF-8"?><svg id="Layer_1" xmlns="http://www.w3.org/2000/svg" viewBox="0 0 1000 2000"><defs><style>.cls-1{letter-spacing:0em;}.cls-2{letter-spacing:-.02em;}.cls-3{letter-spacing:-.02em;}.cls-4{letter-spacing:-.02em;}.cls-5{letter-spacing:0em;}.cls-6{letter-spacing:-.02em;}.cls-7{letter-spacing:0em;}.cls-8{font-size:47.63px;}.cls-8,.cls-9{fill:#fff;font-family:SourceSansRoman-Semibold, 'Source Sans Variable';font-variation-settings:'wght' 600;font-weight:600;}.cls-10{fill:#495ad4;}.cls-11{letter-spacing:-.01em;}.cls-12{letter-spacing:-.02em;}.cls-13{font-family:SourceSansRoman-Regular, 'Source Sans Variable';font-size:25.01px;font-variation-settings:'wght' 400;}.cls-9{font-size:49.85px;}.cls-14{letter-spacing:-.02em;}.cls-15{fill:none;stroke:#000;stroke-miterlimit:10;stroke-width:2px;}.cls-16{letter-spacing:-.01em;}.cls-17{letter-spacing:-.01em;}.cls-18{letter-spacing:0em;}.cls-19{letter-spacing:0em;}.cls-20{letter-spacing:-.01em;}</style></defs><rect class="cls-10" x="523.15" y="565.02" width="432.64" height="432.64"/><rect class="cls-10" x="44.21" y="1002.34" width="474.26" height="474.26" rx="237.13" ry="237.13"/><rect class="cls-10" x="523.15" y="1481.29" width="432.64" height="432.64"/><text class="cls-9" transform="translate(619.12 785.87)"><tspan x="0" y="0">Di</tspan><tspan class="cls-4" x="44.22" y="0">s</tspan><tspan x="64.7" y="0">tribu</tspan><tspan class="cls-14" x="170.13" y="0">t</tspan><tspan x="187.33" y="0">ed</tspan><tspan class="cls-20" x="46.98" y="59.82">L</tspan><tspan x="71.36" y="59.82">ed</tspan><tspan class="cls-14" x="124.75" y="59.82">g</tspan><tspan x="149.87" y="59.82">er</tspan></text><rect class="cls-10" x="44.21" y="86.07" width="474.26" height="474.26" rx="237.13" ry="237.13"/><text class="cls-9" transform="translate(201.56 327.74)"><tspan x="0" y="0">C</tspan><tspan class="cls-18" x="28.71" y="0">r</tspan><tspan class="cls-11" x="46.81" y="0">e</tspan><tspan class="cls-14" x="71.48" y="0">at</tspan><tspan x="113.6" y="0">or</tspan></text><text class="cls-9" transform="translate(682.03 1697.61)"><tspan x="0" y="0">Open</tspan><tspan x="-74.17" y="59.82">Mar</tspan><tspan class="cls-3" x="7.28" y="59.82">k</tspan><tspan class="cls-18" x="32.15" y="59.82">e</tspan><tspan x="56.93" y="59.82">t</tspan><tspan class="cls-7" x="74.92" y="59.82">p</tspan><tspan x="102.74" y="59.82">la</tspan><tspan class="cls-12" x="141.97" y="59.82">c</tspan><tspan x="163.8" y="59.82">e</tspan></text><text class="cls-8" transform="translate(234.66 1254.79)"><tspan class="cls-5" x="0" y="0">U</tspan><tspan class="cls-1" x="30.91" y="0">ser</tspan></text><path class="cls-15" d="m281.34,963.64c0-100.68,81.62-182.31,182.31-182.31"/><line class="cls-15" x1="222.55" y1="599.03" x2="222.55" y2="963.64"/><path class="cls-15" d="m557.17,1239.47c100.68,0,182.31,81.62,182.31,182.31"/><line class="cls-15" x1="793.53" y1="1057.17" x2="793.53" y2="1421.78"/><path class="cls-15" d="m463.64,1697.61c-100.68,0-182.31-81.62-182.31-182.31"/><polyline class="cls-15" points="299.9 1532.82 281.34 1514.25 262.77 1532.82"/><polyline class="cls-15" points="720.91 1403.22 739.47 1421.78 758.04 1403.22"/><polyline class="cls-15" points="721.15 486.54 739.71 505.1 758.27 486.54"/><polyline class="cls-15" points="812.1 1075.73 793.53 1057.17 774.97 1075.73"/><polyline class="cls-15" points="203.99 945.08 222.55 963.64 241.11 945.08"/><polyline class="cls-15" points="445.08 799.9 463.64 781.34 445.08 762.77"/><path class="cls-15" d="m739.71,503.79c0-100.68-81.62-182.31-182.31-182.31"/><text class="cls-13" transform="translate(338.5 954.36)"><tspan x="0" y="0">Claim </tspan><tspan class="cls-6" x="65.15" y="0">c</tspan><tspan x="76.03" y="0">ode</tspan></text><text class="cls-13" transform="translate(574.61 505.1)"><tspan class="cls-19" x="0" y="0">Re</tspan><tspan x="26.14" y="0">gi</tspan><tspan class="cls-2" x="44.89" y="0">s</tspan><tspan class="cls-16" x="54.88" y="0">t</tspan><tspan x="62.98" y="0">er</tspan></text><text class="cls-13" transform="translate(113.2 833.74)"><tspan x="0" y="0">I</tspan><tspan class="cls-16" x="6.58" y="0">t</tspan><tspan x="14.68" y="0">em</tspan></text><text class="cls-13" transform="translate(567.33 1416.2)"><tspan x="0" y="0">ancNFT</tspan></text><text class="cls-13" transform="translate(213.39 1771.99)"><tspan x="0" y="0">Digi</tspan><tspan class="cls-6" x="40.29" y="0">t</tspan><tspan x="48.22" y="0">al </tspan><tspan class="cls-19" x="72.21" y="0">w</tspan><tspan x="89.92" y="0">all</tspan><tspan class="cls-19" x="115.28" y="0">e</tspan><tspan x="127.43" y="0">t</tspan></text><text class="cls-13" transform="translate(823.07 1309.5)"><tspan class="cls-17" x="0" y="0">V</tspan><tspan x="12.51" y="0">erify</tspan></text><g><path d="m390.63,882.68h-24.03v-24.03h24.03v24.03Zm-18.31-5.72h12.59v-12.59h-12.59v12.59Z"/><path d="m426.28,882.68h-24.03v-24.03h24.03v24.03Zm-18.31-5.72h12.59v-12.59h-12.59v12.59Z"/><path d="m390.63,917.6h-24.03v-24.03h24.03v24.03Zm-18.31-5.72h12.59v-12.59h-12.59v12.59Z"/><rect class="cls-10" x="402.25" y="894.3" width="8.03" height="8.03"/><rect class="cls-10" x="418.24" y="902.31" width="8.03" height="8.03"/><rect class="cls-10" x="418.24" y="910.29" width="8.03" height="8.03"/><rect class="cls-10" x="402.25" y="910.29" width="8.03" height="8.03"/><rect class="cls-10" x="410.23" y="902.31" width="8.03" height="8.03"/></g><g><path d="m599.7,466.43c-3.36,0-6.72-1.28-9.28-3.84-5.12-5.12-5.12-13.44,0-18.56l13.33-13.33,3.68,3.68-13.33,13.33c-1.5,1.5-2.32,3.49-2.32,5.6s.82,4.11,2.32,5.6c1.5,1.5,3.49,2.32,5.6,2.32s4.11-.82,5.6-2.32l14.88-14.88c3.09-3.09,3.09-8.12,0-11.21l-1.84-1.84,3.68-3.68,1.84,1.84c5.12,5.12,5.12,13.44,0,18.56l-14.88,14.88c-2.56,2.56-5.92,3.84-9.28,3.84Z"/><path class="cls-10" d="m613.09,440.08c-5.12-5.12-5.12-13.44,0-18.56l14.88-14.88c5.12-5.12,13.44-5.12,18.56,0,5.12,5.12,5.12,13.44,0,18.56l-11.49,11.49-3.68-3.68,11.49-11.49c3.09-3.09,3.09-8.12,0-11.21-3.09-3.09-8.12-3.09-11.21,0l-14.88,14.88c-3.09,3.09-3.09,8.12,0,11.21l-3.68,3.68Z"/></g><path d="m162.22,790.45h-56.15v-56.15h56.15v56.15Zm-50.14-6.01h44.13v-44.13h-44.13v44.13Z"/><polygon class="cls-10" points="174.83 774.84 168.81 774.84 168.81 727.71 121.68 727.71 121.68 721.7 174.83 721.7 174.83 774.84"/><path d="m633.77,1375.89h-56.15v-56.15h56.15v56.15Zm-50.14-6.01h44.13v-44.13h-44.13v44.13Z"/><polygon class="cls-10" points="646.37 1360.28 640.36 1360.28 640.36 1313.14 593.23 1313.14 593.23 1307.13 646.37 1307.13 646.37 1360.28"/><path d="m828.33,1222.1v45.86h21.6v-6.11h-15.49v-33.63h32.27v16.94h6.11v-23.05h-44.5Z"/><polygon class="cls-10" points="894.7 1237.85 870.1 1262.4 856.63 1248.9 852.3 1253.22 870.09 1271.05 899.02 1242.18 894.7 1237.85"/><g><polygon class="cls-10" points="306.95 1685.04 299.95 1685.04 292.5 1672.64 271.86 1685.04 260.22 1685.04 294.55 1664.41 306.95 1685.04"/><path d="m314.14,1732.27h-65.6v-42.08h65.6v42.08Zm-59.59-6.01h53.58v-30.05h-53.58v30.05Z"/></g></svg>