<?xml version="1.0" encoding="UTF-8"?><svg id="Layer_1" xmlns="http://www.w3.org/2000/svg" viewBox="0 0 3715 1000"><defs><style>.cls-1{fill:#495ad4;}</style></defs><rect class="cls-1" x="0" y="0" width="790.8" height="130.75"/><path class="cls-1" d="m395.4,209.2C177.04,209.2,0,386.24,0,604.6s177.04,395.4,395.4,395.4,395.4-177.04,395.4-395.4-177-395.4-395.4-395.4Zm0,660.05c-146.16,0-264.65-118.49-264.65-264.65s118.49-264.65,264.65-264.65,264.65,118.49,264.65,264.65-118.49,264.65-264.65,264.65Z"/><g><path class="cls-1" d="m1792.28,203.57l-320.95,787.51h-62.4l-320.95-787.51v787.51h-148.59V0h212.48l288.26,711.74L1728.39,0h212.48v991.08h-148.59V203.57Z"/><path class="cls-1" d="m2131.06,0h465.07c176.82,0,279.35,108.47,279.35,252.6,0,124.82-81.72,208.02-172.37,227.33,105.5,16.34,191.68,123.33,191.68,243.69,0,156.02-104.01,267.45-286.78,267.45h-476.96V0Zm436.84,420.5c99.56,0,154.53-62.41,154.53-144.13s-54.98-145.62-154.53-145.62h-288.25v289.74h288.25Zm7.43,439.81c104.01,0,166.41-59.43,166.41-156.02,0-81.72-56.46-153.04-166.41-153.04h-295.69v309.05h295.69Z"/><path class="cls-1" d="m3049.33,0h665.67v130.76h-517.08v289.74h506.68v130.76h-506.68v439.81h-148.59V0Z"/></g></svg>