<?xml version="1.0" encoding="UTF-8"?><svg id="Layer_1" xmlns="http://www.w3.org/2000/svg" viewBox="0 0 32 32"><defs><style>.cls-1{fill:#fff;}</style></defs><polygon points="22.67 6.67 20 6.67 20 2.67 12 2.67 12 6.67 9.33 6.67 9.33 0 22.67 0 22.67 6.67"/><polygon points="32 22.67 25.33 22.67 25.33 20 29.33 20 29.33 12 25.33 12 25.33 9.33 32 9.33 32 22.67"/><polygon points="22.67 32 9.33 32 9.33 25.33 12 25.33 12 29.33 20 29.33 20 25.33 22.67 25.33 22.67 32"/><polygon points="6.67 22.67 0 22.67 0 9.33 6.67 9.33 6.67 12 2.67 12 2.67 20 6.67 20 6.67 22.67"/><path class="cls-1" d="m22.67,22.67h-13.33v-13.33h13.33v13.33Zm-10.67-2.67h8v-8h-8v8Z"/></svg>