<?xml version="1.0" encoding="UTF-8"?><svg id="Layer_1" xmlns="http://www.w3.org/2000/svg" viewBox="0 0 32 32"><defs><style>.cls-1{fill:#fff;}.cls-2{fill:#495ad4;}</style></defs><path class="cls-1" d="m27.32,27.32l-1.89-1.89c5.2-5.2,5.2-13.66,0-18.87C20.23,1.37,11.77,1.37,6.57,6.57c-5.2,5.2-5.2,13.66,0,18.87l-1.89,1.89C-1.56,21.08-1.56,10.92,4.68,4.68c6.24-6.24,16.4-6.24,22.64,0,6.24,6.24,6.24,16.4,0,22.64Z"/><path class="cls-1" d="m23.31,23.31l-1.89-1.89c1.45-1.45,2.25-3.37,2.25-5.42s-.8-3.98-2.25-5.42c-2.99-2.99-7.86-2.99-10.85,0-2.99,2.99-2.99,7.86,0,10.85l-1.89,1.89c-4.03-4.03-4.03-10.59,0-14.62,4.03-4.03,10.59-4.03,14.62,0,1.95,1.95,3.03,4.55,3.03,7.31s-1.08,5.36-3.03,7.31Z"/><path class="cls-2" d="m16,20.67c-1.2,0-2.39-.45-3.3-1.37-.88-.88-1.37-2.05-1.37-3.3s.49-2.42,1.37-3.3,2.05-1.37,3.3-1.37,2.42.49,3.3,1.37c1.82,1.82,1.82,4.78,0,6.6h0c-.91.91-2.11,1.37-3.3,1.37Zm0-6.67c-.53,0-1.04.21-1.41.59s-.59.88-.59,1.41.21,1.04.59,1.41c.78.78,2.05.78,2.83,0,.78-.78.78-2.05,0-2.83-.38-.38-.88-.59-1.41-.59Z"/></svg>